PathFileType	4	(X/Y/Z)	Run_400 02
DataRate	CameraRate	NumFrames	NumMarkers	Units	OrigDataRate	OrigDataStartFrame	OrigNumFrames
100	100	4	42	mm	100	16	128
Frame#	Time	RASI			LPSI			RPSI			RTH1			RTH2			RTH3			LTH1			LTH2			LTH3			RTB1			RTB2			RTB3			LTB1			LTB2			LTB3			RCAL			RTOE			RMT5			LCAL			LTOE			LMT5			LACR			RACR			CLAV			C7			RUA1			RUA2			RUA3			RLEL			RMEL			LUA2			LUA3			LLEL			LMEL			RFAsuperior			RFAradius			RFAulna			LFAsuperior			LFAradius			LFAulna			LUA1			LASI		
		X1	Y1	Z1	X2	Y2	Z2	X3	Y3	Z3	X4	Y4	Z4	X5	Y5	Z5	X6	Y6	Z6	X7	Y7	Z7	X8	Y8	Z8	X9	Y9	Z9	X10	Y10	Z10	X11	Y11	Z11	X12	Y12	Z12	X13	Y13	Z13	X14	Y14	Z14	X15	Y15	Z15	X16	Y16	Z16	X17	Y17	Z17	X18	Y18	Z18	X19	Y19	Z19	X20	Y20	Z20	X21	Y21	Z21	X22	Y22	Z22	X23	Y23	Z23	X24	Y24	Z24	X25	Y25	Z25	X26	Y26	Z26	X27	Y27	Z27	X28	Y28	Z28	X29	Y29	Z29	X30	Y30	Z30	X31	Y31	Z31	X32	Y32	Z32	X33	Y33	Z33	X34	Y34	Z34	X35	Y35	Z35	X36	Y36	Z36	X37	Y37	Z37	X38	Y38	Z38	X39	Y39	Z39	X40	Y40	Z40	X41	Y41	Z41	X42	Y42	Z42	

16	  0.160000	1097.195551	975.002142	-228.511140	938.967498	1048.878597	-412.355763	934.237445	1047.641146	-319.861712	1027.766022	808.098844	-176.381867	1046.930217	701.935299	-190.639144	958.726427	578.437491	-210.268173	1053.095639	843.447404	-548.720297	1180.137033	773.337255	-521.725730	1182.452517	643.661656	-511.772177	897.184687	322.652910	-287.268962	798.344801	265.247075	-247.293880	770.894435	200.032524	-313.381410	1153.516478	411.180347	-428.884654	1083.195610	400.086940	-469.901637	1038.677918	331.336029	-416.206868	609.933627	178.577977	-314.279509	815.702185	 65.433975	-324.948632	786.635579	 55.698801	-248.005962	856.974558	321.862073	-392.202262	1043.542373	 90.723685	-386.588896	993.729280	161.003950	-481.344277	1125.914957	1518.793836	-500.977592	1180.939036	1473.055098	-170.917053	1196.972447	1424.679912	-319.989479	1097.908593	1533.717596	-324.951786	1148.088007	1336.328074	-92.246654	1078.763674	1323.307723	-77.311948	1101.594682	1259.054149	-60.523906	1081.166607	1184.544701	-32.898583	1025.969592	1171.434578	-108.784607	933.914628	1470.278068	-524.818598	908.502805	1417.898382	-594.089109	849.949159	1377.909666	-613.569343	827.743964	1365.368540	-524.913747	1160.572883	1204.988735	-73.081046	1270.467518	1243.046287	-192.091116	1288.697673	1177.343601	-168.913716	899.538711	1304.028133	-620.196715	1030.743385	1194.879274	-567.143690	978.495972	1149.547696	-585.056245	1014.013107	1478.046786	-568.975799	1105.564769	981.182869	-481.458961	
17	  0.170000	1099.926062	981.873800	-227.767354	942.613830	1057.719947	-411.497635	937.320962	1054.997890	-319.353318	1025.810743	813.494534	-179.296726	1037.399933	706.677275	-192.437070	939.841450	588.405729	-209.015741	1057.570472	855.934227	-549.465697	1183.709650	788.825151	-520.972755	1188.686101	658.675263	-510.527313	867.822025	332.946136	-285.438432	768.576226	276.694776	-245.444181	741.432449	210.210290	-310.978390	1175.916908	414.886894	-428.583686	1107.328968	395.779949	-469.570514	1070.814401	322.915453	-415.266961	582.849194	194.641825	-313.083302	778.023630	 65.713507	-324.669348	748.395615	 56.661622	-247.741015	891.224243	293.165082	-392.489781	1102.295622	 86.429104	-379.923252	1045.556670	147.313897	-476.870574	1124.088817	1528.103178	-501.737373	1184.010265	1484.158220	-174.511327	1197.566996	1434.963434	-323.021809	1097.917047	1542.893661	-326.367056	1154.198233	1347.574439	-95.087830	1086.660237	1335.792566	-74.727519	1109.373448	1270.196022	-61.670280	1088.821424	1195.562046	-34.277168	1030.444019	1184.078484	-108.306659	932.996304	1485.520292	-520.391491	903.531877	1434.736994	-589.365952	842.638225	1396.526902	-606.573900	824.193105	1383.490851	-516.927941	1165.600823	1219.179398	-76.780620	1268.774944	1261.480326	-200.023416	1290.619339	1196.299125	-178.285224	891.459739	1322.775537	-615.369247	1025.977224	1214.156309	-566.837371	973.717752	1168.655488	-583.243228	1011.152864	1492.491608	-567.194470	1109.323830	990.572004	-480.965369	
18	  0.180000	1102.976834	988.475061	-227.251801	946.204706	1066.197049	-410.355324	940.420645	1062.424758	-318.241461	1023.160656	818.830967	-181.195976	1028.242779	711.885942	-194.070177	922.304160	598.940095	-207.997431	1061.911492	868.178419	-550.046207	1187.103604	803.302189	-520.102830	1193.393289	672.042706	-509.028170	839.970432	344.230290	-283.514997	740.195681	289.249084	-243.636605	713.646960	221.286151	-308.634424	1197.248397	418.157019	-428.168672	1131.085300	391.041528	-469.153501	1102.970989	314.748341	-414.461932	557.752678	211.702464	-311.781526	741.109830	 66.619275	-324.266280	710.935821	 58.676413	-247.370663	927.256214	264.801535	-392.666027	1160.692886	 84.171443	-373.219492	1097.897317	134.902838	-472.346037	1122.536186	1536.973192	-502.404924	1186.634948	1495.215126	-178.284849	1197.948742	1444.835505	-325.935601	1097.786853	1551.683144	-327.911205	1160.133245	1359.259181	-97.387203	1094.730799	1348.368773	-72.440391	1116.905288	1281.729489	-62.369509	1096.207293	1206.961559	-34.875951	1033.609668	1196.995220	-106.302715	932.722050	1499.933476	-516.007841	899.409685	1450.719257	-584.694086	836.365983	1414.235001	-599.733898	821.648432	1400.639170	-509.228766	1170.305186	1233.158242	-79.970704	1266.649534	1278.892331	-207.508983	1291.690072	1213.989869	-187.239626	884.649039	1340.810635	-610.599016	1022.076948	1232.612663	-566.499265	969.992031	1186.865305	-581.950865	1008.707044	1506.498871	-565.806088	1113.027312	999.596346	-480.187322	
19	  0.190000	1106.448222	994.519211	-227.078425	949.631692	1074.021069	-408.850824	943.571632	1069.703725	-316.452337	1020.120770	824.171247	-181.972596	1019.871692	717.585012	-195.766785	906.936259	610.182078	-207.620464	1065.993564	879.909212	-550.286656	1190.280777	815.707630	-519.011751	1195.758773	682.580495	-507.178646	814.743601	357.087696	-281.883686	714.458223	303.212507	-242.049368	688.743508	233.601905	-306.527336	1216.889793	420.639821	-428.023148	1154.052447	385.683061	-468.795449	1135.018248	307.010377	-413.991724	536.261270	230.236347	-310.411065	705.622913	 68.502481	-323.593082	674.958906	 62.343133	-246.814447	965.914059	237.169207	-392.380115	1218.079409	 85.434242	-366.839325	1150.676906	124.903841	-468.086112	1121.390081	1545.047860	-502.979889	1188.680530	1505.984461	-182.286070	1198.108386	1453.918220	-328.610749	1097.472743	1559.733171	-329.650022	1165.806894	1371.330794	-99.096333	1102.597811	1360.898959	-70.988273	1123.914444	1293.756182	-62.468532	1103.087453	1218.801077	-34.475386	1035.170441	1210.117474	-102.365102	933.366728	1512.936794	-511.767134	896.512701	1465.369178	-580.254122	831.594270	1430.305638	-593.386858	820.501880	1416.012421	-502.238368	1174.510385	1246.571337	-82.503050	1264.003980	1294.620707	-214.213019	1291.387008	1229.530749	-195.569293	879.730181	1357.520590	-606.125728	1019.575812	1249.577612	-566.222653	967.927850	1203.481498	-581.526959	1006.891406	1519.515478	-564.976971	1116.566697	1007.966890	-479.046638	
